# xmcd CD database file
#
# Track frame offsets:
#	150
#	15115
#	23503
#	35281
#	42509
#	52284
#	63202
#	74509
#	87719
#	100474
#	111604
#	124989
#	136608
#	149009
#	159803
#	172646
#
# Disc length: 2456 seconds
#
# Revision: 0
# Processed by: cddbd v1.5.2PL0 Copyright (c) Steve Scherf et al.
# Submitted via: CDex 1.70beta2
#
DISCID=da099610
DTITLE=Various Artist - Country Legends - Good Times
DYEAR=2005
DGENRE=Country
TTITLE0=For The Good Times - Kenny Rogers
TTITLE1=Country Boy - Johnny Cash
TTITLE2=You Can't Put The City In A Country Girl - Barbara Fairchild
TTITLE3=That ain't Right Baby - Buck Owens
TTITLE4=Healing Hands of Time - Willie Nelson
TTITLE5=Wishful Thinking - Donna Fargo
TTITLE6=Send Me The Pillow That You Dream On - Hank Locklin
TTITLE7=You Win Again - Jerry Lee Lewis
TTITLE8=Little Blossom - Dolly Parcton
TTITLE9=Big Mamou - Waylon Jennings
TTITLE10=Just Because - Freddy Fender
TTITLE11=I've Loved And Lost Again - Patsy Cline
TTITLE12=Crazy Dreams - Conway Twitty
TTITLE13=Spring Fever - Loretta Lynn
TTITLE14=I Can't Get You Off My Mind - Hank Williams
TTITLE15=Rodeo Cowboy - Lynn Anderson
EXTD=YEAR: 2005
EXTT0=
EXTT1=
EXTT2=
EXTT3=
EXTT4=
EXTT5=
EXTT6=
EXTT7=
EXTT8=
EXTT9=
EXTT10=
EXTT11=
EXTT12=
EXTT13=
EXTT14=
EXTT15=
PLAYORDER=
